<svg width="24" height="24" viewBox="0 0 24 24" fill="none" xmlns="http://www.w3.org/2000/svg">
<g clip-path="url(#clip0_179_7)">
<mask id="mask0_179_7" style="mask-type:luminance" maskUnits="userSpaceOnUse" x="0" y="0" width="24" height="24">
<path d="M24 0H0V24H24V0Z" fill="white"/>
</mask>
<g mask="url(#mask0_179_7)">
<path d="M0 10.387C0 1.833 1.833 0 10.387 0H13.613C22.167 0 24 1.833 24 10.387V13.613C24 22.167 22.167 24 13.613 24H10.387C1.833 24 0 22.167 0 13.613V10.387Z" fill="#FFC233"/>
<mask id="mask1_179_7" style="mask-type:luminance" maskUnits="userSpaceOnUse" x="5" y="3" width="13" height="17">
<path d="M18 3H5.25V20H18V3Z" fill="white"/>
</mask>
<g mask="url(#mask1_179_7)">
<path d="M10.7545 6.29812L12.1016 10.4789L11.0796 11.2221L10.5687 9.66595C9.31445 10.2931 6.24856 12.6389 6.94535 13.2428C7.64215 13.8467 10.2667 12.4299 11.2422 11.8957C12.2177 11.3615 14.7727 9.48013 14.3778 8.80655C14.0619 8.2677 12.8526 8.67494 12.2874 8.9459L11.9623 7.85427C12.0552 7.79236 12.5244 7.61273 13.6578 7.38976C15.0746 7.11104 15.6785 7.2504 16.3985 8.9459C17.1185 10.6415 17.676 12.755 17.6063 14.4738C17.5366 16.1926 16.5843 17.6559 16.5146 18.283C16.4449 18.9101 16.4449 19.3978 15.934 19.8391C15.5252 20.1922 14.7417 19.8762 14.3778 19.723C13.9436 19.5402 13.9141 19.5372 12.586 19.4044L12.5197 19.3978C10.3197 19.1778 8.50152 17.9113 7.40988 16.75C6.64247 15.9336 5.83082 14.6988 5.40361 13.991C5.30195 13.8226 5.25702 13.6243 5.29753 13.4318C5.7742 11.1666 8.76823 9.28 10.2667 8.59755L9.66572 6.77908C9.4837 6.22836 9.67463 5.62294 10.1397 5.27628L12.955 3.1776C13.084 3.0814 13.2675 3.1142 13.3552 3.24916L13.6576 3.71444C13.7366 3.83579 13.7094 3.99733 13.5952 4.08625L10.7545 6.29812Z" fill="white"/>
<path d="M8.37135 6.15714C8.68035 6.50032 9.11891 7.54682 8.77574 7.85583C8.43257 8.16485 7.43761 7.61933 7.1286 7.27616C6.8196 6.93299 6.8473 6.40429 7.19047 6.09528C7.53364 5.78628 8.06234 5.81397 8.37135 6.15714Z" fill="white"/>
<path d="M6.75838 8.3318C7.12769 8.23287 8.06452 8.30271 8.16347 8.67203C8.26243 9.04131 7.48603 9.5702 7.11673 9.66918C6.74743 9.76811 6.36783 9.54895 6.26888 9.17967C6.16992 8.81035 6.38908 8.43078 6.75838 8.3318Z" fill="white"/>
</g>
</g>
</g>
<defs>
<clipPath id="clip0_179_7">
<rect width="24" height="24" fill="white"/>
</clipPath>
</defs>
</svg>
